<svg width="25" height="25" viewBox="0 0 25 25" fill="none" xmlns="http://www.w3.org/2000/svg">
<path d="M12.5 1.5C9.18164 1.5 6.5 4.18164 6.5 7.5V10H4.5C3.67773 10 3 10.6777 3 11.5V23.5C3 24.3223 3.67773 25 4.5 25H20.5C21.3223 25 22 24.3223 22 23.5V11.5C22 10.6777 21.3223 10 20.5 10H18.5V7.5C18.5 4.18164 15.8184 1.5 12.5 1.5ZM12.5 2.5C15.2832 2.5 17.5 4.7168 17.5 7.5V10H7.5V7.5C7.5 4.7168 9.7168 2.5 12.5 2.5ZM4.5 11H20.5C20.7773 11 21 11.2227 21 11.5V23.5C21 23.7773 20.7773 24 20.5 24H4.5C4.22266 24 4 23.7773 4 23.5V11.5C4 11.2227 4.22266 11 4.5 11ZM12.5 15C11.6504 15 11 15.6504 11 16.5C11 16.9492 11.1992 17.3438 11.5 17.5938V19C11.5 19.5508 11.9492 20 12.5 20C13.0508 20 13.5 19.5508 13.5 19V17.5938C13.8008 17.3438 14 16.9492 14 16.5C14 15.6504 13.3496 15 12.5 15Z" fill="black"/>
</svg>
