<svg width="77" height="31" viewBox="0 0 77 31" fill="none" xmlns="http://www.w3.org/2000/svg">
<path d="M38.75 0C13.25 0 0 8 0 8H77C77 8 64.25 0 38.75 0Z" fill="#0F35BD"/>
<path d="M3 20H4.57193V13.9127H4.61868L6.8977 20H8.00798L10.2812 13.9127H10.3337V20H11.9057V11H9.86626L7.47037 17.4678H7.43531L5.03942 11H3V20Z" fill="#DF3535"/>
<path d="M13.3081 20H18.8947V18.447H15.0729V16.183H18.6784V14.711H15.0729V12.553H18.8947V11H13.3081V20Z" fill="#DF3535"/>
<path d="M19.6309 20H21.4834L22.1203 17.817H25.1006L25.7375 20H27.59L24.6506 11H22.5761L19.6309 20ZM23.5929 12.7464H23.628L24.6915 16.4075H22.5294L23.5929 12.7464Z" fill="#DF3535"/>
<path d="M29.3255 20H31.0903V12.553H33.5329V11H26.8887V12.553H29.3255V20Z" fill="#DF3535"/>
<path d="M38.8974 20H40.6621V12.553H43.1048V11H36.4606V12.553H38.8974V20Z" fill="#DF3535"/>
<path d="M44.0807 20H45.8454V16.738H47.2596L48.8315 20H50.83L49.0536 16.4574C49.9886 16.0644 50.5788 15.079 50.5788 13.894V13.8815C50.5788 12.0728 49.4568 11 47.5635 11H44.0807V20ZM45.8454 15.3098V12.4719H47.3472C48.2179 12.4719 48.7731 13.0208 48.7731 13.8815V13.894C48.7731 14.7796 48.2472 15.3098 47.3706 15.3098H45.8454Z" fill="#DF3535"/>
<path d="M51.2099 20H53.0623L53.6993 17.817H56.6795L57.3165 20H59.1689L56.2295 11H54.1551L51.2099 20ZM55.1719 12.7464H55.2069L56.2705 16.4075H54.1083L55.1719 12.7464Z" fill="#DF3535"/>
<path d="M60.0337 20H63.2536C65.7839 20 67.274 18.3222 67.274 15.4657V15.4532C67.274 12.6029 65.778 11 63.2536 11H60.0337V20ZM61.7985 18.4407V12.553H63.0432C64.5918 12.553 65.4742 13.5821 65.4742 15.4595V15.4719C65.4742 17.4179 64.621 18.4407 63.0432 18.4407H61.7985Z" fill="#DF3535"/>
<path d="M68.4135 20H74V18.447H70.1783V16.183H73.7838V14.711H70.1783V12.553H74V11H68.4135V20Z" fill="#DF3535"/>
<path d="M38.75 31C13.25 31 0 23 0 23H77C77 23 64.25 31 38.75 31Z" fill="#0F35BD"/>
</svg>
